<?xml version="1.0" encoding="UTF-8" standalone="no"?>
<!-- Created with Inkscape (http://www.inkscape.org/) -->

<svg
   xmlns:dc="http://purl.org/dc/elements/1.1/"
   xmlns:cc="http://creativecommons.org/ns#"
   xmlns:rdf="http://www.w3.org/1999/02/22-rdf-syntax-ns#"
   xmlns:svg="http://www.w3.org/2000/svg"
   xmlns="http://www.w3.org/2000/svg"
   xmlns:sodipodi="http://sodipodi.sourceforge.net/DTD/sodipodi-0.dtd"
   xmlns:inkscape="http://www.inkscape.org/namespaces/inkscape"
   id="svg3336"
   version="1.1"
   inkscape:version="0.91 r13725"
   width="591"
   height="591"
   viewBox="0 0 591 591"
   sodipodi:docname="cachoeira.svg">
  <metadata
     id="metadata3342">
    <rdf:RDF>
      <cc:Work
         rdf:about="">
        <dc:format>image/svg+xml</dc:format>
        <dc:type
           rdf:resource="http://purl.org/dc/dcmitype/StillImage" />
        <dc:title />
      </cc:Work>
    </rdf:RDF>
  </metadata>
  <defs
     id="defs3340" />
  <sodipodi:namedview
     pagecolor="#ffffff"
     bordercolor="#666666"
     borderopacity="1"
     objecttolerance="10"
     gridtolerance="10"
     guidetolerance="10"
     inkscape:pageopacity="0"
     inkscape:pageshadow="2"
     inkscape:window-width="1366"
     inkscape:window-height="744"
     id="namedview3338"
     showgrid="false"
     inkscape:zoom="0.47631134"
     inkscape:cx="-85.693557"
     inkscape:cy="263.94671"
     inkscape:window-x="1024"
     inkscape:window-y="0"
     inkscape:window-maximized="1"
     inkscape:current-layer="svg3336" />
  <path
     style="fill:#000000"
     d="m 6.8063837,394.08136 0,-143.41066 45.7829253,0.28676 45.782927,0.28677 21.592504,117.02645 c 13.09982,70.99798 22.3447,118.45571 23.50492,120.66032 4.38162,8.32573 19.69972,14.37846 38.71606,15.2981 20.25472,0.97954 36.9095,-3.95234 45.21665,-13.38973 l 4.20286,-4.77466 1.82194,3.17453 c 1.00207,1.74599 4.19706,4.68151 7.09997,6.52339 8.67242,5.50254 17.91199,7.89077 32.83362,8.48678 20.61874,0.82356 35.77685,-3.78342 44.26805,-13.45431 l 3.44724,-3.92618 3.44724,3.92618 c 4.8913,5.57086 11.33642,9.01253 21.86183,11.67418 11.85902,2.99888 31.77487,2.50871 42.81932,-1.05387 8.90501,-2.87246 16.96341,-7.90632 19.60168,-12.24458 l 2.0155,-3.3142 3.44775,4.29024 c 7.6895,9.5685 25.40908,14.97971 46.18265,14.10325 19.26215,-0.81269 33.39681,-6.33134 38.35844,-14.97644 l 1.73071,-3.01559 5.59224,5.6979 c 8.54889,8.71043 20.75979,12.58752 39.53171,12.55177 18.20217,-0.0347 33.17794,-4.89496 40.68459,-13.2039 l 3.94336,-4.3648 0,25.27649 0,25.27648 -291.74334,0 -291.7433463,0 0,-143.41067 z M 257.45278,472.67954 c -4.47236,-1.2107 -10.24099,-3.43746 -12.81916,-4.94836 -5.00263,-2.93172 -12.56401,-10.99584 -12.56401,-13.39936 0,-2.39652 -0.94805,-1.7386 -7.15433,4.96488 -3.38834,3.65981 -8.90919,8.02465 -12.85344,10.16207 -6.35084,3.4416 -7.68895,3.74693 -16.43009,3.74894 -8.82644,0.002 -9.8608,-0.23982 -14.27121,-3.33691 -9.60083,-6.74189 -8.89502,-3.83777 -29.07831,-119.64568 -10.10172,-57.9618 -19.15589,-106.90633 -20.38325,-110.18676 -2.92197,-7.80962 -12.0679,-17.60001 -20.93088,-22.40577 l -6.91393,-3.74892 -48.623896,-0.31787 c -26.74314,-0.17484 -48.6238903,-0.7283 -48.6238903,-1.22992 0,-1.32018 21.9716583,-22.30972 33.5296833,-32.03092 44.878392,-37.74625 95.016263,-64.42154 138.635933,-73.75968 10.19221,-2.18195 15.0305,-2.54485 33.86782,-2.54021 19.49424,0.004 23.03203,0.2913 31.31708,2.53613 15.49999,4.19973 36.07292,15.12229 53.83351,28.58125 8.84618,6.70364 32.21061,29.38697 44.74819,43.44372 l 7.70276,8.63612 3.69252,-3.29925 3.69251,-3.29924 -10.94215,-11.9299 c -23.08112,-25.16466 -41.36756,-41.51172 -57.74359,-51.61953 l -6.45551,-3.98455 6.52589,-8.43577 c 26.05985,-33.686652 44.84614,-51.171536 59.72891,-55.591225 17.02515,-5.055895 36.63877,1.306114 52.44022,17.009889 10.02619,9.964204 15.68505,18.232897 31.24024,45.648026 19.52123,34.40505 28.90769,47.53306 45.19246,63.20675 16.85554,16.22303 36.10477,27.39186 55.83534,32.39691 13.0169,3.30199 22.87362,4.62575 41.53575,5.5783 l 15.10912,0.77119 0,97.48222 0,97.48224 -4.53455,5.15149 c -8.32865,9.4618 -21.07749,13.80571 -40.5181,13.80571 -21.80896,0 -36.88687,-6.12543 -42.84837,-17.40726 -1.23124,-2.33004 -2.12733,-3.20418 -2.1557,-2.1029 -0.15132,5.87267 -13.72894,14.85004 -27.24496,18.01408 -10.73435,2.51286 -33.75562,1.6694 -41.89629,-1.53501 -8.51555,-3.35198 -14.14892,-7.62114 -17.41861,-13.20042 l -2.86014,-4.88043 -1.98367,3.86657 c -2.73304,5.3272 -10.02397,11.29501 -17.34336,14.19595 -8.54755,3.3877 -33.54979,3.63051 -43.33835,0.42088 -8.83313,-2.89635 -18.72972,-9.53399 -22.77783,-15.27706 l -3.3737,-4.78629 -6.23063,6.21306 c -6.62154,6.60287 -14.86408,11.24999 -24.50548,13.81613 -8.23762,2.19251 -12.72177,2.05065 -14.05725,-0.44469 -0.60078,-1.12258 -8.32659,-41.76876 -17.16847,-90.32483 -8.84188,-48.55608 -17.06305,-90.92152 -18.26928,-94.14544 -2.90616,-7.76736 -12.07492,-17.57156 -20.91573,-22.3653 l -6.91393,-3.74892 -19.22979,-0.24744 c -17.64475,-0.22704 -18.89128,-0.11896 -15.12296,1.31124 9.53611,3.61926 19.49815,12.76336 24.36208,22.36183 4.03325,7.95919 37.3051,178.50492 35.82882,183.65235 -1.51049,5.26677 -3.11796,6.64639 -7.74408,6.64639 -8.51199,0 -7.48435,3.81558 -25.6045,-95.06807 -13.2654,-72.39069 -16.83916,-90.05599 -19.18986,-94.85674 -3.75297,-7.66451 -13.03267,-16.87032 -20.90037,-20.73393 -6.02454,-2.95847 -6.91489,-3.07492 -25.47253,-3.3312 -17.72153,-0.24473 -18.8945,-0.14299 -14.95501,1.29705 10.02392,3.66416 19.87795,12.81284 25.33259,23.51925 1.02914,2.02003 10.51236,48.25372 21.07382,102.74154 10.56145,54.48782 19.4988,100.25874 19.86078,101.71317 0.91754,3.68678 10.14445,12.96216 13.8016,13.87413 8.6027,2.14523 17.29975,-3.2641 23.90827,-14.87028 0.75514,-1.32621 1.68161,-0.78163 4.7415,2.78703 7.58085,8.84131 22.35006,13.65303 41.98764,13.67932 18.65066,0.0249 32.2826,-4.3059 40.03878,-12.72033 l 4.4206,-4.79576 4.4206,4.79576 c 7.75619,8.41443 21.38813,12.7453 40.03878,12.72033 19.51006,-0.0261 34.41768,-4.84317 41.84612,-13.52161 l 3.66148,-4.27758 3.5164,4.00494 c 4.95866,5.64758 11.36356,9.08068 21.92283,11.75088 11.99616,3.03356 32.87376,2.52382 44.01986,-1.07477 8.28199,-2.6739 15.55284,-7.52457 18.47065,-12.32251 l 2.00881,-3.3032 1.79382,2.73771 c 6.90171,10.53329 21.54681,15.97734 43.05829,16.00614 18.25778,0.0244 32.41552,-4.40237 40.41187,-12.63591 l 4.04751,-4.16757 0,6.50652 c 0,5.13411 -0.58093,7.36145 -2.75415,10.5596 -6.1981,9.12128 -19.78063,15.00103 -36.80427,15.9322 -22.11516,1.20968 -41.46329,-5.91811 -47.74945,-17.59074 l -2.0384,-3.78508 -2.35171,4.44711 c -4.92735,9.31771 -19.57206,15.84118 -37.97006,16.91369 -22.87217,1.33334 -41.31992,-5.83906 -47.93872,-18.63837 l -1.72741,-3.34042 -1.69745,3.50483 c -3.95991,8.17629 -15.77721,15.24273 -29.94662,17.90731 -8.59239,1.61581 -26.56191,0.4312 -35.3297,-2.32904 -9.38547,-2.9547 -17.37468,-8.31997 -20.16133,-13.53963 -1.20908,-2.26472 -2.44557,-4.11768 -2.74775,-4.11768 -0.30218,0 -1.53867,1.85296 -2.74775,4.11768 -2.78124,5.20955 -10.75794,10.57387 -20.16133,13.55851 -10.87695,3.45235 -29.95766,3.92907 -40.71419,1.01722 z"
     id="path3411"
     inkscape:connector-curvature="0" />
</svg>
